# xmcd
#
# Track frame offsets: 
#        150
#        24281
#        44488
#        62686
#        84862
#        108086
#        126992
#        145118
#        163574
#        178765
#        194646
#
# Disc length: 2840 seconds
#
# Revision: 2
# Processed by: cddbd v1.5.2PL0 Copyright (c) Steve Scherf et al.
# Submitted via: ExactAudioCopyFreeDBPlugin 1.0
#
DISCID=8f0b160b
DTITLE=Austra - Feel It Break
DYEAR=2011
DGENRE=
TTITLE0=Darken Her Horse
TTITLE1=Lose It
TTITLE2=The Future
TTITLE3=Beat And The Pulse
TTITLE4=Spellwork
TTITLE5=The Choke
TTITLE6=Hate Crime
TTITLE7=The Villain
TTITLE8=Shoot The Water
TTITLE9=The Noise
TTITLE10=The Beast
EXTD=YEAR: 2011
EXTT0=
EXTT1=
EXTT2=
EXTT3=
EXTT4=
EXTT5=
EXTT6=
EXTT7=
EXTT8=
EXTT9=
EXTT10=
PLAYORDER=
